<svg width="18.040833" height="18.000000" viewBox="0 0 18.0408 18" fill="none" xmlns="http://www.w3.org/2000/svg" xmlns:xlink="http://www.w3.org/1999/xlink">
	<desc>
			Created with Pixso.
	</desc>
	<defs/>
	<path id="Vector" d="M16.78 17.05L16.8 17.06L17.59 16.28C18.17 15.71 18.18 14.79 17.63 14.23L14.85 11.45C14.29 10.89 13.37 10.91 12.8 11.48L11.39 12.89C11.3 12.84 11.21 12.79 11.12 12.73C10.23 12.24 9.02 11.57 7.74 10.29C6.46 9.01 5.79 7.8 5.29 6.91C5.24 6.82 5.19 6.72 5.14 6.64L6.08 5.7L6.55 5.23C7.12 4.66 7.14 3.74 6.58 3.19L3.8 0.4C3.25 -0.15 2.33 -0.14 1.75 0.44L1.53 0.66L0.97 1.23L0.97 1.23L0.97 1.23L0.99 1.25L0.99 1.25C0.72 1.58 0.5 1.97 0.34 2.39C0.19 2.79 0.09 3.17 0.05 3.55C-0.32 6.6 1.08 9.39 4.86 13.17C10.09 18.4 14.3 18 14.48 17.98C14.88 17.93 15.26 17.84 15.64 17.69C16.06 17.53 16.45 17.31 16.78 17.05ZM1.75 1.58L1.62 1.74Q1.29 2.16 1.08 2.68Q0.9 3.17 0.85 3.64Q0.72 4.66 0.9 5.63Q0.9 5.64 0.9 5.66Q1.09 6.67 1.62 7.73Q2.16 8.81 3.09 10.01Q4.03 11.21 5.43 12.6Q7.16 14.34 8.96 15.45Q10.4 16.33 11.81 16.78Q12.81 17.1 13.71 17.18Q13.98 17.2 14.22 17.19Q14.34 17.19 14.4 17.19Q14.88 17.13 15.35 16.94Q15.87 16.74 16.29 16.42L16.29 16.42L16.42 16.32L17.03 15.71Q17.13 15.61 17.18 15.5Q17.23 15.38 17.24 15.23Q17.24 15.08 17.18 14.96Q17.14 14.87 17.06 14.8L14.28 12.01L14.28 12.01Q14.21 11.94 14.12 11.9Q14 11.84 13.84 11.84Q13.72 11.84 13.61 11.89Q13.47 11.94 13.36 12.05L11.53 13.88L10.73 13.43Q10.26 13.17 9.99 13.01Q9.53 12.74 9.13 12.47Q8.33 11.93 7.63 11.29Q7.4 11.08 7.17 10.86Q6.96 10.64 6.76 10.42Q6.11 9.71 5.56 8.91Q5.29 8.5 5.02 8.04Q4.86 7.78 4.6 7.3L4.6 7.3L4.59 7.3L4.59 7.3Q4.59 7.28 4.57 7.26Q4.49 7.1 4.45 7.04L4.14 6.5L5.52 5.13L5.98 4.67Q6.1 4.56 6.15 4.42Q6.19 4.31 6.19 4.19Q6.19 4.04 6.13 3.91Q6.09 3.83 6.02 3.75L3.23 0.96Q3.16 0.89 3.07 0.85Q2.95 0.79 2.8 0.8Q2.67 0.8 2.57 0.84Q2.43 0.89 2.32 1L1.75 1.58Z" fill="#956D84" fill-opacity="1.000000" fill-rule="evenodd"/>
</svg>
