<svg width="77" height="17" viewBox="0 0 77 17" fill="none" xmlns="http://www.w3.org/2000/svg">
<path d="M1.116 13H9.036V11.884H2.412C2.448 8.518 8.838 7.924 8.838 3.676C8.838 1.696 7.38 0.129999 4.986 0.129999C3.276 0.129999 1.854 1.138 1.152 2.416L2.07 3.046C2.682 2.056 3.726 1.318 4.914 1.318C6.498 1.318 7.542 2.362 7.542 3.748C7.542 7.168 1.044 7.744 1.044 12.19C1.044 12.442 1.08 12.712 1.116 13ZM11.2222 9.436C11.2222 11.74 13.2382 13.216 15.5062 13.216C17.9722 13.216 19.7002 11.542 19.7002 9.562C19.7002 8.248 18.9262 7.456 17.9002 6.862C18.2782 6.502 19.5382 5.116 19.5382 3.406C19.5382 1.462 18.0082 0.129999 15.6682 0.129999C13.1122 0.129999 11.8342 1.678 11.8342 3.37C11.8342 4.54 12.4822 5.314 13.3642 5.89C12.8782 6.196 11.2222 7.384 11.2222 9.436ZM16.8742 6.358C15.1282 5.548 13.0942 5.026 13.0942 3.352C13.0942 2.218 14.0302 1.282 15.6502 1.282C17.1802 1.282 18.2782 2.11 18.2782 3.496C18.2782 4.936 17.1802 6.052 16.8742 6.358ZM12.5182 9.346C12.5182 7.708 13.9402 6.736 14.3722 6.466C16.2082 7.348 18.4222 7.852 18.4222 9.58C18.4222 11.038 16.9822 12.064 15.4882 12.064C13.9942 12.064 12.5182 10.984 12.5182 9.346ZM26.4092 13.216C29.7032 13.216 30.7832 10.318 30.7832 6.664C30.7832 3.028 29.7032 0.129999 26.4092 0.129999C23.1332 0.129999 22.0532 3.028 22.0532 6.664C22.0532 10.318 23.1332 13.216 26.4092 13.216ZM26.4092 12.046C24.0152 12.046 23.3492 9.706 23.3492 6.664C23.3492 3.658 24.0152 1.318 26.4092 1.318C28.8212 1.318 29.4872 3.658 29.4872 6.664C29.4872 9.706 28.8212 12.046 26.4092 12.046ZM37.5186 13.216C40.8126 13.216 41.8926 10.318 41.8926 6.664C41.8926 3.028 40.8126 0.129999 37.5186 0.129999C34.2426 0.129999 33.1626 3.028 33.1626 6.664C33.1626 10.318 34.2426 13.216 37.5186 13.216ZM37.5186 12.046C35.1246 12.046 34.4586 9.706 34.4586 6.664C34.4586 3.658 35.1246 1.318 37.5186 1.318C39.9306 1.318 40.5966 3.658 40.5966 6.664C40.5966 9.706 39.9306 12.046 37.5186 12.046ZM49.042 13H50.266V5.008H54.442V3.946H49.042V13ZM56.3193 16.6H57.5433V12.208C57.5433 11.74 57.4893 11.416 57.4893 11.416H57.5253C58.1193 12.55 59.2353 13.216 60.5133 13.216C62.8713 13.216 64.5633 11.344 64.5633 8.464C64.5633 5.674 63.0693 3.73 60.6213 3.73C59.2173 3.73 58.0293 4.432 57.4713 5.602H57.4353C57.4353 5.602 57.4893 5.296 57.4893 4.9V3.946H56.3193V16.6ZM57.5073 8.5C57.5073 5.926 58.9293 4.846 60.4413 4.846C62.1333 4.846 63.3213 6.268 63.3213 8.482C63.3213 10.786 61.9893 12.118 60.3873 12.118C58.5333 12.118 57.5073 10.318 57.5073 8.5ZM66.9189 13H68.1429V8.896H73.4349V13H74.6589V3.946H73.4349V7.816H68.1429V3.946H66.9189V13Z" fill="#BDBDBD"/>
<path d="M0 7.6H76.1169V8.5H0V7.6Z" fill="#BDBDBD"/>
</svg>
