<svg width="56" height="56" viewBox="0 0 56 56" fill="none" xmlns="http://www.w3.org/2000/svg">
<circle cx="28" cy="28" r="27.5" stroke="#E72222" stroke-dasharray="5 5"/>
<path d="M11.04 29.208V27.832H15.12V29.208H11.04ZM17.9294 33V23H15.7374L16.8574 21.64H19.3054V33H17.9294ZM25.7885 33.16C24.6045 33.16 23.6392 32.7653 22.8925 31.976C22.1458 31.176 21.7725 30.1467 21.7725 28.888V25.72C21.7725 24.4613 22.1458 23.4373 22.8925 22.648C23.6498 21.848 24.6152 21.448 25.7885 21.448C26.9618 21.448 27.9272 21.848 28.6845 22.648C29.4418 23.448 29.8205 24.472 29.8205 25.72V28.888C29.8205 30.1467 29.4418 31.176 28.6845 31.976C27.9272 32.7653 26.9618 33.16 25.7885 33.16ZM25.7885 31.816C26.5778 31.816 27.2178 31.5547 27.7085 31.032C28.1992 30.5093 28.4445 29.7947 28.4445 28.888V25.72C28.4445 24.8133 28.1992 24.0987 27.7085 23.576C27.2178 23.0533 26.5778 22.792 25.7885 22.792C25.0098 22.792 24.3752 23.0533 23.8845 23.576C23.3938 24.0987 23.1485 24.8133 23.1485 25.72V28.888C23.1485 29.7947 23.3938 30.5093 23.8845 31.032C24.3752 31.5547 25.0098 31.816 25.7885 31.816ZM35.8533 33H34.3653L41.5653 21.64H43.0533L35.8533 33ZM42.9733 33.128C42.0986 33.128 41.3519 32.8187 40.7333 32.2C40.1253 31.5813 39.8212 30.84 39.8212 29.976C39.8212 29.1013 40.1253 28.36 40.7333 27.752C41.3519 27.1333 42.0986 26.824 42.9733 26.824C43.8373 26.824 44.5786 27.1333 45.1973 27.752C45.8159 28.36 46.1253 29.1013 46.1253 29.976C46.1253 30.84 45.8159 31.5813 45.1973 32.2C44.5786 32.8187 43.8373 33.128 42.9733 33.128ZM42.9733 31.88C43.4853 31.88 43.9279 31.6933 44.3013 31.32C44.6746 30.936 44.8613 30.488 44.8613 29.976C44.8613 29.464 44.6746 29.0213 44.3013 28.648C43.9279 28.264 43.4853 28.072 42.9733 28.072C42.4399 28.072 41.9919 28.2587 41.6293 28.632C41.2666 29.0053 41.0853 29.4533 41.0853 29.976C41.0853 30.4987 41.2666 30.9467 41.6293 31.32C41.9919 31.6933 42.4399 31.88 42.9733 31.88ZM34.4453 27.816C33.5706 27.816 32.8239 27.5067 32.2053 26.888C31.5973 26.2693 31.2933 25.528 31.2933 24.664C31.2933 23.7893 31.5973 23.048 32.2053 22.44C32.8239 21.8213 33.5706 21.512 34.4453 21.512C35.3093 21.512 36.0506 21.8213 36.6693 22.44C37.2879 23.048 37.5973 23.7893 37.5973 24.664C37.5973 25.528 37.2879 26.2693 36.6693 26.888C36.0506 27.5067 35.3093 27.816 34.4453 27.816ZM34.4453 26.568C34.9573 26.568 35.3999 26.3813 35.7733 26.008C36.1466 25.624 36.3333 25.176 36.3333 24.664C36.3333 24.152 36.1466 23.7093 35.7733 23.336C35.3999 22.952 34.9573 22.76 34.4453 22.76C33.9119 22.76 33.4639 22.9467 33.1013 23.32C32.7386 23.6933 32.5573 24.1413 32.5573 24.664C32.5573 25.1867 32.7386 25.6347 33.1013 26.008C33.4639 26.3813 33.9119 26.568 34.4453 26.568Z" fill="black"/>
</svg>
